<svg data-v-423bf9ae="" xmlns="http://www.w3.org/2000/svg" viewBox="0 0 474 90" class="iconLeftSlogan"><!----><!----><!----><g data-v-423bf9ae="" id="a99d1659-a6e6-4be9-a28f-d3fc524cdf3f" fill="#ffffff" transform="matrix(4.573170439180078,0,0,4.573170439180078,104.01577787728715,-14.771341082615116)"><path d="M1.30 3.75L2.95 3.75L2.95 7.55L6.92 7.55L6.92 3.75L8.57 3.75L8.57 12.84L6.92 12.84L6.92 8.99L2.95 8.99L2.95 12.84L1.30 12.84L1.30 3.75ZM13.43 8.86L13.43 8.86L13.43 8.86Q14.24 8.86 15.30 9.13L15.30 9.13L15.30 8.46L15.30 8.46Q15.30 7.74 15.02 7.40L15.02 7.40L15.02 7.40Q14.73 7.06 14.08 7.06L14.08 7.06L14.08 7.06Q13.43 7.06 13.08 7.32L13.08 7.32L13.08 7.32Q12.73 7.57 12.73 8.05L12.73 8.05L10.92 8.05L10.92 8.05Q10.92 6.89 11.74 6.37L11.74 6.37L11.74 6.37Q12.56 5.85 14.03 5.85L14.03 5.85L14.03 5.85Q16.13 5.85 16.74 7.32L16.74 7.32L16.74 7.32Q16.95 7.83 16.95 8.51L16.95 8.51L16.95 12.84L15.51 12.84L15.39 11.93L15.39 11.93Q14.73 13.03 13.37 13.03L13.37 13.03L13.37 13.03Q12.05 13.03 11.33 12.39L11.33 12.39L11.33 12.39Q10.65 11.77 10.65 10.83L10.65 10.83L10.65 10.83Q10.65 9.88 11.40 9.37L11.40 9.37L11.40 9.37Q12.14 8.86 13.43 8.86ZM15.30 10.18L15.30 10.18L15.30 10.18Q14.48 9.95 13.76 9.95L13.76 9.95L13.76 9.95Q12.42 9.95 12.42 10.85L12.42 10.85L12.42 10.85Q12.42 11.23 12.73 11.50L12.73 11.50L12.73 11.50Q13.03 11.77 13.71 11.77L13.71 11.77L13.71 11.77Q14.39 11.77 14.83 11.32L14.83 11.32L14.83 11.32Q15.27 10.86 15.30 10.18ZM19.36 12.84L19.36 3.23L21.01 3.23L21.01 12.84L19.36 12.84ZM26.29 5.85L26.29 5.85L26.29 5.85Q26.98 5.85 27.58 6.07L27.58 6.07L27.58 6.07Q28.18 6.29 28.62 6.73L28.62 6.73L28.62 6.73Q29.58 7.71 29.58 9.45L29.58 9.45L29.58 9.45Q29.58 11.16 28.62 12.14L28.62 12.14L28.62 12.14Q27.75 13.03 26.29 13.03L26.29 13.03L26.29 13.03Q24.84 13.03 23.94 12.14L23.94 12.14L23.94 12.14Q22.97 11.17 22.97 9.45L22.97 9.45L22.97 9.45Q22.97 7.70 23.94 6.73L23.94 6.73L23.94 6.73Q24.82 5.85 26.29 5.85ZM27.93 9.44L27.93 9.44L27.93 9.44Q27.93 8.36 27.51 7.82L27.51 7.82L27.51 7.82Q27.09 7.28 26.34 7.28L26.34 7.28L26.34 7.28Q25.59 7.28 25.12 7.82L25.12 7.82L25.12 7.82Q24.64 8.36 24.64 9.44L24.64 9.44L24.64 9.44Q24.64 10.51 25.07 11.05L25.07 11.05L25.07 11.05Q25.49 11.59 26.24 11.59L26.24 11.59L26.24 11.59Q26.98 11.59 27.45 11.05L27.45 11.05L27.45 11.05Q27.93 10.51 27.93 9.44ZM37.95 6.26L36.32 6.26L36.32 6.26Q36.09 5.07 34.64 5.07L34.64 5.07L34.64 5.07Q33.92 5.07 33.52 5.36L33.52 5.36L33.52 5.36Q33.12 5.64 33.12 6.05L33.12 6.05L33.12 6.05Q33.12 6.45 33.38 6.69L33.38 6.69L33.38 6.69Q33.64 6.92 34.19 7.11L34.19 7.11L36.16 7.88L36.16 7.88Q37.17 8.27 37.72 8.87L37.72 8.87L37.72 8.87Q38.26 9.46 38.26 10.36L38.26 10.36L38.26 10.36Q38.26 11.59 37.34 12.31L37.34 12.31L37.34 12.31Q36.41 13.03 34.71 13.03L34.71 13.03L34.71 13.03Q33.19 13.03 32.26 12.29L32.26 12.29L32.26 12.29Q31.21 11.48 31.15 10.00L31.15 10.00L32.79 10.00L32.79 10.00Q32.79 11.12 33.95 11.41L33.95 11.41L33.95 11.41Q34.30 11.51 34.87 11.51L34.87 11.51L34.87 11.51Q35.45 11.51 35.94 11.22L35.94 11.22L35.94 11.22Q36.43 10.93 36.43 10.45L36.43 10.45L36.43 10.45Q36.43 9.97 36.16 9.71L36.16 9.71L36.16 9.71Q35.90 9.45 35.29 9.23L35.29 9.23L33.49 8.51L33.49 8.51Q32.44 8.11 31.88 7.56L31.88 7.56L31.88 7.56Q31.32 7.01 31.32 6.05L31.32 6.05L31.32 6.05Q31.32 4.91 32.20 4.26L32.20 4.26L32.20 4.26Q33.10 3.57 34.63 3.57L34.63 3.57L34.63 3.57Q36.16 3.57 37.00 4.28L37.00 4.28L37.00 4.28Q37.83 4.98 37.95 6.26L37.95 6.26ZM44.07 11.51L44.31 12.67L44.31 12.67Q43.39 13.03 42.85 13.03L42.85 13.03L42.85 13.03Q42.32 13.03 41.92 12.91L41.92 12.91L41.92 12.91Q41.52 12.78 41.22 12.53L41.22 12.53L41.22 12.53Q40.57 11.96 40.57 10.95L40.57 10.95L40.57 7.14L39.62 7.14L39.62 6.03L40.57 6.03L40.57 4.24L42.22 4.24L42.22 6.03L44.07 6.03L44.07 7.14L42.22 7.14L42.22 10.89L42.22 10.89Q42.22 11.73 43.02 11.73L43.02 11.73L43.02 11.73Q43.43 11.73 44.07 11.51L44.07 11.51ZM48.24 8.86L48.24 8.86L48.24 8.86Q49.06 8.86 50.12 9.13L50.12 9.13L50.12 8.46L50.12 8.46Q50.12 7.74 49.83 7.40L49.83 7.40L49.83 7.40Q49.55 7.06 48.90 7.06L48.90 7.06L48.90 7.06Q48.24 7.06 47.89 7.32L47.89 7.32L47.89 7.32Q47.54 7.57 47.54 8.05L47.54 8.05L45.74 8.05L45.74 8.05Q45.74 6.89 46.56 6.37L46.56 6.37L46.56 6.37Q47.38 5.85 48.85 5.85L48.85 5.85L48.85 5.85Q50.95 5.85 51.56 7.32L51.56 7.32L51.56 7.32Q51.77 7.83 51.77 8.51L51.77 8.51L51.77 12.84L50.33 12.84L50.20 11.93L50.20 11.93Q49.55 13.03 48.19 13.03L48.19 13.03L48.19 13.03Q46.87 13.03 46.14 12.39L46.14 12.39L46.14 12.39Q45.47 11.77 45.47 10.83L45.47 10.83L45.47 10.83Q45.47 9.88 46.21 9.37L46.21 9.37L46.21 9.37Q46.96 8.86 48.24 8.86ZM50.12 10.18L50.12 10.18L50.12 10.18Q49.29 9.95 48.58 9.95L48.58 9.95L48.58 9.95Q47.24 9.95 47.24 10.85L47.24 10.85L47.24 10.85Q47.24 11.23 47.54 11.50L47.54 11.50L47.54 11.50Q47.85 11.77 48.53 11.77L48.53 11.77L48.53 11.77Q49.21 11.77 49.65 11.32L49.65 11.32L49.65 11.32Q50.09 10.86 50.12 10.18ZM57.78 11.51L58.02 12.67L58.02 12.67Q57.09 13.03 56.56 13.03L56.56 13.03L56.56 13.03Q56.03 13.03 55.63 12.91L55.63 12.91L55.63 12.91Q55.23 12.78 54.92 12.53L54.92 12.53L54.92 12.53Q54.28 11.96 54.28 10.95L54.28 10.95L54.28 7.14L53.33 7.14L53.33 6.03L54.28 6.03L54.28 4.24L55.93 4.24L55.93 6.03L57.78 6.03L57.78 7.14L55.93 7.14L55.93 10.89L55.93 10.89Q55.93 11.73 56.73 11.73L56.73 11.73L56.73 11.73Q57.13 11.73 57.78 11.51L57.78 11.51ZM59.09 10.77L60.63 10.77L60.63 10.77Q60.66 11.73 62.05 11.73L62.05 11.73L62.05 11.73Q62.58 11.73 62.92 11.50L62.92 11.50L62.92 11.50Q63.27 11.27 63.27 10.96L63.27 10.96L63.27 10.96Q63.27 10.65 63.06 10.49L63.06 10.49L63.06 10.49Q62.85 10.32 62.40 10.18L62.40 10.18L60.91 9.65L60.91 9.65Q59.26 9.07 59.26 7.77L59.26 7.77L59.26 7.77Q59.26 6.90 60.04 6.38L60.04 6.38L60.04 6.38Q60.82 5.85 62.13 5.85L62.13 5.85L62.13 5.85Q63.43 5.85 64.14 6.43L64.14 6.43L64.14 6.43Q64.85 7.00 64.88 7.87L64.88 7.87L63.32 7.87L63.32 7.87Q63.29 7.53 63.00 7.34L63.00 7.34L63.00 7.34Q62.71 7.14 62.16 7.14L62.16 7.14L62.16 7.14Q61.61 7.14 61.31 7.36L61.31 7.36L61.31 7.36Q61.01 7.57 61.01 7.85L61.01 7.85L61.01 7.85Q61.01 8.34 61.84 8.58L61.84 8.58L63.45 9.18L63.45 9.18Q64.25 9.45 64.67 9.86L64.67 9.86L64.67 9.86Q65.10 10.28 65.10 10.93L65.10 10.93L65.10 10.93Q65.10 11.77 64.30 12.39L64.30 12.39L64.30 12.39Q63.48 13.03 62.12 13.03L62.12 13.03L62.12 13.03Q60.76 13.03 59.93 12.44L59.93 12.44L59.93 12.44Q59.11 11.84 59.09 10.77L59.09 10.77ZM70.25 3.75L70.25 3.75Q71.79 3.75 72.65 4.50L72.65 4.50L72.65 4.50Q73.51 5.25 73.51 6.64L73.51 6.64L73.51 6.64Q73.51 8.04 72.65 8.79L72.65 8.79L72.65 8.79Q71.79 9.53 70.25 9.53L70.25 9.53L68.71 9.53L68.71 12.84L67.05 12.84L67.05 3.75L70.25 3.75ZM68.71 8.09L70.25 8.09L70.25 8.09Q71.02 8.09 71.41 7.69L71.41 7.69L71.41 7.69Q71.81 7.28 71.81 6.64L71.81 6.64L71.81 6.64Q71.81 6.01 71.41 5.59L71.41 5.59L71.41 5.59Q71.02 5.18 70.25 5.18L70.25 5.18L68.71 5.18L68.71 8.09ZM74.19 6.03L76.06 6.03L77.70 10.93L79.13 6.03L80.81 6.03L78.20 14.07L78.20 14.07Q77.80 15.29 77.22 15.82L77.22 15.82L77.22 15.82Q76.64 16.35 75.74 16.35L75.74 16.35L75.74 16.35Q74.83 16.35 73.92 15.90L73.92 15.90L73.92 14.45L73.92 14.45Q74.65 14.91 75.39 14.91L75.39 14.91L75.39 14.91Q75.88 14.91 76.20 14.52L76.20 14.52L76.20 14.52Q76.51 14.13 76.71 13.50L76.71 13.50L76.92 12.84L74.19 6.03Z"></path></g><!----><g data-v-423bf9ae="" id="4e6161e2-c162-4c03-8f68-60fb3597c94f" transform="matrix(1.0862350448481901,0,0,1.0862350448481901,-3.296411244744668,-3.295268816258478)" stroke="none" fill="#1DC7DA"><circle cx="41.682" cy="41.651" r="8.106"></circle><circle cx="56.884" cy="56.853" r="8.107"></circle><circle cx="26.479" cy="26.447" r="8.106"></circle><path d="M73.292 79.672l-6.606 6.606h13.201a6.595 6.595 0 0 0 6.596-6.596V66.481l-6.606 6.606-6.585 6.585zM86.48 10.482a7.058 7.058 0 0 0-7.057-7.058c-.133 0-.264.013-.395.02v-.02H10.723a7.06 7.06 0 0 0-7.059 7.058V79.22h.07v.002a7.06 7.06 0 0 0 7.06 7.057h47.138a7.04 7.04 0 0 0 4.99-2.068l21.49-21.49h-.001a7.038 7.038 0 0 0 2.067-4.99h.002V10.482zm-7.059 45.05h-.002c0 1.617-.655 3.08-1.714 4.14l.001.001L59.88 77.498a5.841 5.841 0 0 1-4.139 1.717l-39.1-.001a5.856 5.856 0 0 1-5.856-5.854v-.001h-.058V16.343a5.853 5.853 0 0 1 5.854-5.854h56.655v.017c.11-.006.219-.017.329-.017a5.855 5.855 0 0 1 5.854 5.854h.001v39.189z"></path></g><!----><g data-v-423bf9ae="" id="03270d25-fa40-4058-92a2-91c67208c72e" fill="#ffffff" transform="matrix(2.533666156119976,0,0,2.533666156119976,106.768474152452,53.792519638551454)"><path d="M1.26 2.80L1.26 12.60L3.36 12.60C5.49 12.60 6.55 11.69 6.55 9.87C6.55 9.19 6.32 8.62 5.84 8.17C5.37 7.72 4.81 7.41 4.14 7.25C5.38 7.02 5.99 6.30 5.99 5.11C5.99 4.40 5.74 3.84 5.23 3.42C4.72 3.01 4.00 2.80 3.08 2.80ZM1.68 7.08L1.68 3.21L3.08 3.21C3.85 3.21 4.46 3.37 4.91 3.71C5.35 4.05 5.57 4.51 5.57 5.11C5.57 5.60 5.44 5.99 5.17 6.31C4.90 6.62 4.58 6.83 4.24 6.93C3.89 7.03 3.50 7.08 3.08 7.08ZM1.68 7.48L3.36 7.48C3.76 7.48 4.16 7.56 4.56 7.72C4.97 7.88 5.32 8.16 5.63 8.54C5.94 8.92 6.09 9.37 6.09 9.87C6.09 11.42 5.18 12.19 3.36 12.19L1.68 12.19ZM21.03 2.80L18.02 8.16L15.13 2.80L14.60 2.80L17.79 8.62L17.79 12.60L18.24 12.60L18.24 8.61L21.56 2.80ZM41.23 2.80L41.23 12.60L43.33 12.60C45.46 12.60 46.52 11.69 46.52 9.87C46.52 9.19 46.29 8.62 45.81 8.17C45.34 7.72 44.78 7.41 44.11 7.25C45.35 7.02 45.96 6.30 45.96 5.11C45.96 4.40 45.71 3.84 45.20 3.42C44.69 3.01 43.97 2.80 43.05 2.80ZM41.65 7.08L41.65 3.21L43.05 3.21C43.82 3.21 44.43 3.37 44.88 3.71C45.32 4.05 45.54 4.51 45.54 5.11C45.54 5.60 45.41 5.99 45.14 6.31C44.87 6.62 44.55 6.83 44.20 6.93C43.85 7.03 43.47 7.08 43.05 7.08ZM41.65 7.48L43.33 7.48C43.73 7.48 44.13 7.56 44.53 7.72C44.94 7.88 45.29 8.16 45.60 8.54C45.91 8.92 46.06 9.37 46.06 9.87C46.06 11.42 45.15 12.19 43.33 12.19L41.65 12.19ZM55.48 7.70C55.48 6.38 55.89 5.29 56.70 4.41C57.51 3.53 58.54 3.09 59.78 3.09C61.02 3.09 62.05 3.53 62.86 4.41C63.67 5.29 64.08 6.38 64.08 7.70C64.08 9.02 63.67 10.11 62.86 10.99C62.05 11.87 61.02 12.31 59.78 12.31C58.54 12.31 57.51 11.87 56.70 10.99C55.89 10.11 55.48 9.02 55.48 7.70ZM55.06 7.70C55.06 9.16 55.51 10.36 56.40 11.30C57.29 12.24 58.42 12.71 59.78 12.71C61.14 12.71 62.27 12.24 63.16 11.30C64.05 10.36 64.50 9.16 64.50 7.70C64.50 6.24 64.05 5.04 63.16 4.10C62.27 3.16 61.14 2.69 59.78 2.69C58.42 2.69 57.29 3.16 56.40 4.10C55.51 5.04 55.06 6.24 55.06 7.70ZM73.32 7.70C73.32 6.38 73.72 5.29 74.54 4.41C75.35 3.53 76.37 3.09 77.62 3.09C78.86 3.09 79.88 3.53 80.70 4.41C81.51 5.29 81.91 6.38 81.91 7.70C81.91 9.02 81.51 10.11 80.70 10.99C79.88 11.87 78.86 12.31 77.62 12.31C76.37 12.31 75.35 11.87 74.54 10.99C73.72 10.11 73.32 9.02 73.32 7.70ZM72.90 7.70C72.90 9.16 73.34 10.36 74.24 11.30C75.13 12.24 76.25 12.71 77.62 12.71C78.98 12.71 80.11 12.24 81.00 11.30C81.89 10.36 82.33 9.16 82.33 7.70C82.33 6.24 81.89 5.04 81.00 4.10C80.11 3.16 78.98 2.69 77.62 2.69C76.25 2.69 75.13 3.16 74.24 4.10C73.34 5.04 72.90 6.24 72.90 7.70ZM99.54 3.86L100.39 12.60L100.81 12.60L99.76 2.45L95.84 10.70L91.92 2.45L90.87 12.60L91.29 12.60L92.15 3.86L95.84 11.69ZM109.21 3.25L115.22 3.25L108.93 12.60L115.79 12.60L115.79 12.15L109.79 12.15L116.07 2.80L109.21 2.80Z"></path></g></svg>