<svg data-v-fde0c5aa="" xmlns="http://www.w3.org/2000/svg" viewBox="0 0 300 300" class="font"><!----><defs data-v-fde0c5aa=""><!----></defs><rect data-v-fde0c5aa="" fill="#231B6E" x="0" y="0" width="300px" height="300px" class="logo-background-square"></rect><defs data-v-fde0c5aa=""><!----></defs><g data-v-fde0c5aa="" id="cab16807-7fae-41b7-b6bc-8b4b63fb828f" fill="#1DC7DA" transform="matrix(2.7669477449289137,0,0,2.7669477449289137,36.402968063530764,122.91158036331312)"><path d="M1.30 3.75L2.95 3.75L2.95 7.55L6.92 7.55L6.92 3.75L8.57 3.75L8.57 12.84L6.92 12.84L6.92 8.99L2.95 8.99L2.95 12.84L1.30 12.84L1.30 3.75ZM13.43 8.86L13.43 8.86L13.43 8.86Q14.24 8.86 15.30 9.13L15.30 9.13L15.30 8.46L15.30 8.46Q15.30 7.74 15.02 7.40L15.02 7.40L15.02 7.40Q14.73 7.06 14.08 7.06L14.08 7.06L14.08 7.06Q13.43 7.06 13.08 7.32L13.08 7.32L13.08 7.32Q12.73 7.57 12.73 8.05L12.73 8.05L10.92 8.05L10.92 8.05Q10.92 6.89 11.74 6.37L11.74 6.37L11.74 6.37Q12.56 5.85 14.03 5.85L14.03 5.85L14.03 5.85Q16.13 5.85 16.74 7.32L16.74 7.32L16.74 7.32Q16.95 7.83 16.95 8.51L16.95 8.51L16.95 12.84L15.51 12.84L15.39 11.93L15.39 11.93Q14.73 13.03 13.37 13.03L13.37 13.03L13.37 13.03Q12.05 13.03 11.33 12.39L11.33 12.39L11.33 12.39Q10.65 11.77 10.65 10.83L10.65 10.83L10.65 10.83Q10.65 9.88 11.40 9.37L11.40 9.37L11.40 9.37Q12.14 8.86 13.43 8.86ZM15.30 10.18L15.30 10.18L15.30 10.18Q14.48 9.95 13.76 9.95L13.76 9.95L13.76 9.95Q12.42 9.95 12.42 10.85L12.42 10.85L12.42 10.85Q12.42 11.23 12.73 11.50L12.73 11.50L12.73 11.50Q13.03 11.77 13.71 11.77L13.71 11.77L13.71 11.77Q14.39 11.77 14.83 11.32L14.83 11.32L14.83 11.32Q15.27 10.86 15.30 10.18ZM19.36 12.84L19.36 3.23L21.01 3.23L21.01 12.84L19.36 12.84ZM26.29 5.85L26.29 5.85L26.29 5.85Q26.98 5.85 27.58 6.07L27.58 6.07L27.58 6.07Q28.18 6.29 28.62 6.73L28.62 6.73L28.62 6.73Q29.58 7.71 29.58 9.45L29.58 9.45L29.58 9.45Q29.58 11.16 28.62 12.14L28.62 12.14L28.62 12.14Q27.75 13.03 26.29 13.03L26.29 13.03L26.29 13.03Q24.84 13.03 23.94 12.14L23.94 12.14L23.94 12.14Q22.97 11.17 22.97 9.45L22.97 9.45L22.97 9.45Q22.97 7.70 23.94 6.73L23.94 6.73L23.94 6.73Q24.82 5.85 26.29 5.85ZM27.93 9.44L27.93 9.44L27.93 9.44Q27.93 8.36 27.51 7.82L27.51 7.82L27.51 7.82Q27.09 7.28 26.34 7.28L26.34 7.28L26.34 7.28Q25.59 7.28 25.12 7.82L25.12 7.82L25.12 7.82Q24.64 8.36 24.64 9.44L24.64 9.44L24.64 9.44Q24.64 10.51 25.07 11.05L25.07 11.05L25.07 11.05Q25.49 11.59 26.24 11.59L26.24 11.59L26.24 11.59Q26.98 11.59 27.45 11.05L27.45 11.05L27.45 11.05Q27.93 10.51 27.93 9.44ZM37.95 6.26L36.32 6.26L36.32 6.26Q36.09 5.07 34.64 5.07L34.64 5.07L34.64 5.07Q33.92 5.07 33.52 5.36L33.52 5.36L33.52 5.36Q33.12 5.64 33.12 6.05L33.12 6.05L33.12 6.05Q33.12 6.45 33.38 6.69L33.38 6.69L33.38 6.69Q33.64 6.92 34.19 7.11L34.19 7.11L36.16 7.88L36.16 7.88Q37.17 8.27 37.72 8.87L37.72 8.87L37.72 8.87Q38.26 9.46 38.26 10.36L38.26 10.36L38.26 10.36Q38.26 11.59 37.34 12.31L37.34 12.31L37.34 12.31Q36.41 13.03 34.71 13.03L34.71 13.03L34.71 13.03Q33.19 13.03 32.26 12.29L32.26 12.29L32.26 12.29Q31.21 11.48 31.15 10.00L31.15 10.00L32.79 10.00L32.79 10.00Q32.79 11.12 33.95 11.41L33.95 11.41L33.95 11.41Q34.30 11.51 34.87 11.51L34.87 11.51L34.87 11.51Q35.45 11.51 35.94 11.22L35.94 11.22L35.94 11.22Q36.43 10.93 36.43 10.45L36.43 10.45L36.43 10.45Q36.43 9.97 36.16 9.71L36.16 9.71L36.16 9.71Q35.90 9.45 35.29 9.23L35.29 9.23L33.49 8.51L33.49 8.51Q32.44 8.11 31.88 7.56L31.88 7.56L31.88 7.56Q31.32 7.01 31.32 6.05L31.32 6.05L31.32 6.05Q31.32 4.91 32.20 4.26L32.20 4.26L32.20 4.26Q33.10 3.57 34.63 3.57L34.63 3.57L34.63 3.57Q36.16 3.57 37.00 4.28L37.00 4.28L37.00 4.28Q37.83 4.98 37.95 6.26L37.95 6.26ZM44.07 11.51L44.31 12.67L44.31 12.67Q43.39 13.03 42.85 13.03L42.85 13.03L42.85 13.03Q42.32 13.03 41.92 12.91L41.92 12.91L41.92 12.91Q41.52 12.78 41.22 12.53L41.22 12.53L41.22 12.53Q40.57 11.96 40.57 10.95L40.57 10.95L40.57 7.14L39.62 7.14L39.62 6.03L40.57 6.03L40.57 4.24L42.22 4.24L42.22 6.03L44.07 6.03L44.07 7.14L42.22 7.14L42.22 10.89L42.22 10.89Q42.22 11.73 43.02 11.73L43.02 11.73L43.02 11.73Q43.43 11.73 44.07 11.51L44.07 11.51ZM48.24 8.86L48.24 8.86L48.24 8.86Q49.06 8.86 50.12 9.13L50.12 9.13L50.12 8.46L50.12 8.46Q50.12 7.74 49.83 7.40L49.83 7.40L49.83 7.40Q49.55 7.06 48.90 7.06L48.90 7.06L48.90 7.06Q48.24 7.06 47.89 7.32L47.89 7.32L47.89 7.32Q47.54 7.57 47.54 8.05L47.54 8.05L45.74 8.05L45.74 8.05Q45.74 6.89 46.56 6.37L46.56 6.37L46.56 6.37Q47.38 5.85 48.85 5.85L48.85 5.85L48.85 5.85Q50.95 5.85 51.56 7.32L51.56 7.32L51.56 7.32Q51.77 7.83 51.77 8.51L51.77 8.51L51.77 12.84L50.33 12.84L50.20 11.93L50.20 11.93Q49.55 13.03 48.19 13.03L48.19 13.03L48.19 13.03Q46.87 13.03 46.14 12.39L46.14 12.39L46.14 12.39Q45.47 11.77 45.47 10.83L45.47 10.83L45.47 10.83Q45.47 9.88 46.21 9.37L46.21 9.37L46.21 9.37Q46.96 8.86 48.24 8.86ZM50.12 10.18L50.12 10.18L50.12 10.18Q49.29 9.95 48.58 9.95L48.58 9.95L48.58 9.95Q47.24 9.95 47.24 10.85L47.24 10.85L47.24 10.85Q47.24 11.23 47.54 11.50L47.54 11.50L47.54 11.50Q47.85 11.77 48.53 11.77L48.53 11.77L48.53 11.77Q49.21 11.77 49.65 11.32L49.65 11.32L49.65 11.32Q50.09 10.86 50.12 10.18ZM57.78 11.51L58.02 12.67L58.02 12.67Q57.09 13.03 56.56 13.03L56.56 13.03L56.56 13.03Q56.03 13.03 55.63 12.91L55.63 12.91L55.63 12.91Q55.23 12.78 54.92 12.53L54.92 12.53L54.92 12.53Q54.28 11.96 54.28 10.95L54.28 10.95L54.28 7.14L53.33 7.14L53.33 6.03L54.28 6.03L54.28 4.24L55.93 4.24L55.93 6.03L57.78 6.03L57.78 7.14L55.93 7.14L55.93 10.89L55.93 10.89Q55.93 11.73 56.73 11.73L56.73 11.73L56.73 11.73Q57.13 11.73 57.78 11.51L57.78 11.51ZM59.09 10.77L60.63 10.77L60.63 10.77Q60.66 11.73 62.05 11.73L62.05 11.73L62.05 11.73Q62.58 11.73 62.92 11.50L62.92 11.50L62.92 11.50Q63.27 11.27 63.27 10.96L63.27 10.96L63.27 10.96Q63.27 10.65 63.06 10.49L63.06 10.49L63.06 10.49Q62.85 10.32 62.40 10.18L62.40 10.18L60.91 9.65L60.91 9.65Q59.26 9.07 59.26 7.77L59.26 7.77L59.26 7.77Q59.26 6.90 60.04 6.38L60.04 6.38L60.04 6.38Q60.82 5.85 62.13 5.85L62.13 5.85L62.13 5.85Q63.43 5.85 64.14 6.43L64.14 6.43L64.14 6.43Q64.85 7.00 64.88 7.87L64.88 7.87L63.32 7.87L63.32 7.87Q63.29 7.53 63.00 7.34L63.00 7.34L63.00 7.34Q62.71 7.14 62.16 7.14L62.16 7.14L62.16 7.14Q61.61 7.14 61.31 7.36L61.31 7.36L61.31 7.36Q61.01 7.57 61.01 7.85L61.01 7.85L61.01 7.85Q61.01 8.34 61.84 8.58L61.84 8.58L63.45 9.18L63.45 9.18Q64.25 9.45 64.67 9.86L64.67 9.86L64.67 9.86Q65.10 10.28 65.10 10.93L65.10 10.93L65.10 10.93Q65.10 11.77 64.30 12.39L64.30 12.39L64.30 12.39Q63.48 13.03 62.12 13.03L62.12 13.03L62.12 13.03Q60.76 13.03 59.93 12.44L59.93 12.44L59.93 12.44Q59.11 11.84 59.09 10.77L59.09 10.77ZM70.25 3.75L70.25 3.75Q71.79 3.75 72.65 4.50L72.65 4.50L72.65 4.50Q73.51 5.25 73.51 6.64L73.51 6.64L73.51 6.64Q73.51 8.04 72.65 8.79L72.65 8.79L72.65 8.79Q71.79 9.53 70.25 9.53L70.25 9.53L68.71 9.53L68.71 12.84L67.05 12.84L67.05 3.75L70.25 3.75ZM68.71 8.09L70.25 8.09L70.25 8.09Q71.02 8.09 71.41 7.69L71.41 7.69L71.41 7.69Q71.81 7.28 71.81 6.64L71.81 6.64L71.81 6.64Q71.81 6.01 71.41 5.59L71.41 5.59L71.41 5.59Q71.02 5.18 70.25 5.18L70.25 5.18L68.71 5.18L68.71 8.09ZM74.19 6.03L76.06 6.03L77.70 10.93L79.13 6.03L80.81 6.03L78.20 14.07L78.20 14.07Q77.80 15.29 77.22 15.82L77.22 15.82L77.22 15.82Q76.64 16.35 75.74 16.35L75.74 16.35L75.74 16.35Q74.83 16.35 73.92 15.90L73.92 15.90L73.92 14.45L73.92 14.45Q74.65 14.91 75.39 14.91L75.39 14.91L75.39 14.91Q75.88 14.91 76.20 14.52L76.20 14.52L76.20 14.52Q76.51 14.13 76.71 13.50L76.71 13.50L76.92 12.84L74.19 6.03Z"></path></g><!----><!----></svg>